<?xml version="1.0" encoding="UTF-8"?>
<svg version="1.1" xmlns="http://www.w3.org/2000/svg" width="1080" height="1080">
  <defs>
    <mask id="asteriskMask">
      <!-- White background makes everything visible -->
      <rect width="1080" height="1080" fill="white"/>
      <!-- Black areas hide the content, showing only through the asterisk -->
      <path d="M0 0 C356.4 0 712.8 0 1080 0 C1080 356.4 1080 712.8 1080 1080 C723.6 1080 367.2 1080 0 1080 C0 723.6 0 367.2 0 0 Z " fill="black" transform="translate(0,0)"/>
      <path d="M0 0 C356.4 0 712.8 0 1080 0 C1080 132.33 1080 264.66 1080 401 C1061.85 401.33 1043.7 401.66 1025 402 C1017.97629541 403.2770372 1011.39072973 404.55472719 1004.625 406.625 C1003.77123779 406.88587402 1002.91747559 407.14674805 1002.0378418 407.41552734 C966.44862311 418.51949352 931.31546262 435.22778386 904 461 C902.73233809 462.06628181 901.46154859 463.12885756 900.1875 464.1875 C871.32948067 489.50358939 850.54930908 526.44616731 840.75 563.3125 C840.52812012 564.13886963 840.30624023 564.96523926 840.07763672 565.81665039 C839.31177143 568.86385902 838.66403458 571.92881784 838 575 C837.84161589 575.64613534 837.68323177 576.29227068 837.52004814 576.95798588 C832.51446467 597.67751185 833.38844786 618.94752962 833.39249516 640.11209178 C833.3893317 645.57197782 833.36364339 651.03176103 833.34051514 656.49159241 C833.30021135 666.79333009 833.27967521 677.09500489 833.26654124 687.39680916 C833.24759005 701.34392921 833.19749348 715.29093694 833.14929771 729.23798084 C833.07435601 751.15864796 833.04050036 773.07917947 833 795 C795.05 795 757.1 795 718 795 C718 699.63 718 604.26 718 506 C716.02 505.67 714.04 505.34 712 505 C709.64853816 504.01832176 707.41859261 502.8971787 705.1484375 501.7421875 C702.47619721 500.81904995 701.63224332 500.98859779 699 502 C696.52003307 504.02967877 696.52003307 504.02967877 693.96594715 506.66211605 C693.22249837 507.39992314 693.22249837 507.39992314 692.46403041 508.15263543 C690.79488871 509.8127903 689.1367104 511.48348523 687.47822571 513.15428162 C686.27580789 514.35467623 685.07273307 515.55441303 683.8690564 516.75354534 C680.55538041 520.05854728 677.25116908 523.37287427 673.94838655 526.68875754 C670.38802203 530.25999321 666.81903768 533.82259576 663.25109863 537.38626099 C656.26000833 544.37170928 649.27693622 551.36512104 642.29646675 558.36118083 C634.17416662 566.50098907 626.04384304 574.63276313 617.91311338 582.76414979 C603.41085332 597.26809908 588.91567596 611.77910609 574.42456055 626.29418945 C560.34927713 640.39273627 546.26945082 654.48672434 532.18432617 668.57543945 C531.31672676 669.44326164 530.44912734 670.31108382 529.55523703 671.20520364 C527.80754865 672.95333461 526.05986 674.70146529 524.31217105 676.44959569 C523.45013755 677.31184876 522.58810404 678.17410184 521.69994831 679.06248379 C520.41024979 680.35250629 520.41024979 680.35250629 519.09449675 681.66858986 C505.69048188 695.07630228 492.29029932 708.48784442 478.89064646 721.89991603 C474.02676686 726.76823639 469.162385 731.63605424 464.29765741 736.50352722 C456.58286595 744.22274443 448.86974119 751.94361886 441.16003934 759.66791969 C437.63513237 763.19944932 434.10944465 766.73018981 430.58161736 770.25880241 C427.35673863 773.48446466 424.13416532 776.71241105 420.91347959 779.94225968 C419.74353105 781.11472864 418.572729 782.28634661 417.40102211 783.45705836 C415.81722023 785.03977418 414.23648354 786.62548733 412.65652943 788.21204281 C411.77508851 789.09473022 410.89364759 789.97741764 409.98549634 790.88685316 C407.96093012 792.83935435 407.96093012 792.83935435 407 795 C352.55 795 298.1 795 242 795 C242 793 242 793 244.03068542 790.8453064 C245.01919158 789.89555217 246.00910652 788.94726322 247 788 C248.15972936 786.84371623 249.31639805 785.68435782 250.47065735 784.52261353 C251.11385925 783.87796646 251.75706116 783.2333194 252.41975403 782.56913757 C253.10921616 781.8781044 253.79867828 781.18707123 254.5090332 780.47509766 C262.04209682 772.92565804 269.57773754 765.37879606 277.11481953 757.8333683 C281.6689405 753.27402605 286.22212117 748.71375285 290.77319336 744.15136719 C295.18580789 739.72785701 299.60088823 735.30682162 304.01766014 730.88746262 C305.69496283 729.20831982 307.37138875 727.52830071 309.0468998 725.84737015 C311.39651511 723.49045403 313.74928418 721.1367286 316.1027832 718.78369141 C316.78617264 718.0967067 317.46956207 717.40972198 318.17366028 716.70191956 C318.82532166 716.05163284 319.47698303 715.40134613 320.14839172 714.73135376 C320.70234776 714.17647593 321.25630381 713.62159809 321.82704639 713.04990578 C323.68504998 711.29711535 325.58172576 709.63974042 327.52097607 707.97902393 C333.10486766 703.11339473 338.28942871 697.84563587 343.51599121 692.60426331 C344.66937702 691.45131416 345.8229828 690.29858503 346.97678804 689.14605564 C350.13059679 685.99447322 353.28129529 682.83979766 356.43147612 679.68458951 C359.83514101 676.27659346 363.24170851 672.87150093 366.6479187 669.46604919 C372.54368404 663.5708074 378.43762027 657.67374205 384.33030701 651.77542305 C392.85007521 643.24751693 401.3726137 634.72238378 409.89582402 626.19791805 C423.72515031 612.36640484 437.55224342 598.5326614 451.37792969 584.69750977 C464.80579232 571.2604637 478.23470813 557.82447161 491.66503906 544.38989258 C492.49332205 543.56134687 493.32160503 542.73280117 494.17498749 541.87914801 C498.33037701 537.72245343 502.48578721 533.56577953 506.6412077 529.40911591 C541.09734605 494.94261616 575.54985925 460.47249444 610 426 C608.86530577 422.54176156 607.74018429 419.23075482 606.08984375 415.984375 C605.73986328 415.29085938 605.38988281 414.59734375 605.02929688 413.8828125 C604.66900391 413.17898438 604.30871094 412.47515625 603.9375 411.75 C603.57333984 411.03070313 603.20917969 410.31140625 602.83398438 409.5703125 C601.89258917 407.71188352 600.94661263 405.85577685 600 404 C599.67 403.34 599.34 402.68 599 402 C401.33 401.67 203.66 401.34 0 401 C0 268.67 0 136.34 0 0 Z " fill="black" transform="translate(0,0)"/>
      <!-- The dark asterisk part should be white to show through -->
      <path d="M0 0 C1.12464183 -0.00199105 2.24928365 -0.0039821 3.40800554 -0.00603348 C4.63854478 -0.00312064 5.86908403 -0.0002078 7.13691235 0.00279331 C9.10342567 0.00151167 9.10342567 0.00151167 11.10966653 0.00020415 C14.74688444 -0.0020322 18.38407292 0.00196873 22.02128708 0.00698221 C25.9442079 0.01129884 29.86712703 0.00983942 33.79004955 0.00907993 C40.58621966 0.00855547 47.38238017 0.01169419 54.17854786 0.01731777 C64.00467718 0.02544324 73.83080185 0.02804907 83.65693416 0.02930576 C99.59900858 0.03149463 115.54107789 0.03815026 131.48314953 0.04760838 C146.96980291 0.05678675 162.45645491 0.06386551 177.94311047 0.06811619 C178.89763543 0.06837891 179.8521604 0.06864164 180.83561037 0.06891232 C185.62415999 0.07021735 190.41270962 0.07148106 195.20125926 0.07272422 C234.92991051 0.0830917 274.65855605 0.10070554 314.38720226 0.12304783 C312.83982998 3.58102533 311.04289393 5.3017311 308.07860851 7.66601658 C304.81421978 10.47806507 302.15319441 13.83256615 299.38720226 17.12304783 C298.66919445 17.95320408 297.95118664 18.78336033 297.21142101 19.63867283 C291.42731498 26.41677417 286.10761719 33.47167107 280.8706007 40.67944431 C277.79157676 44.90492226 274.66563008 49.07484556 271.41454601 53.16992283 C270.45016613 54.3859116 270.45016613 54.3859116 269.46630383 55.6264658 C268.23249189 57.17334875 266.99127098 58.7143597 265.74169445 60.24853611 C265.18514172 60.94704685 264.62858898 61.64555759 264.05517101 62.36523533 C263.56299084 62.97222263 263.07081066 63.57920994 262.56371593 64.2045908 C261.14498387 66.5180161 260.69490008 68.43664077 260.38720226 71.12304783 C261.27883804 73.23988624 261.27883804 73.23988624 262.38720226 75.12304783 C262.38720226 76.11304783 262.38720226 77.10304783 262.38720226 78.12304783 C308.58720226 78.12304783 354.78720226 78.12304783 402.38720226 78.12304783 C402.38720226 116.40304783 402.38720226 154.68304783 402.38720226 194.12304783 C384.23720226 194.45304783 366.08720226 194.78304783 347.38720226 195.12304783 C340.36349767 196.40008503 333.777932 197.67777501 327.01220226 199.74804783 C326.15844006 200.00892185 325.30467785 200.26979588 324.42504406 200.53857517 C288.83582537 211.64254135 253.70266488 228.35083169 226.38720226 254.12304783 C225.11954035 255.18932964 223.84875085 256.25190539 222.57470226 257.31054783 C193.71668293 282.62663722 172.93651134 319.56921514 163.13720226 356.43554783 C162.91532238 357.26191746 162.6934425 358.08828709 162.46483898 358.93969822 C161.69897369 361.98690685 161.05123684 365.05186567 160.38720226 368.12304783 C160.22881815 368.76918317 160.07043404 369.41531851 159.9072504 370.08103371 C154.90166694 390.80055967 155.77565012 412.07057745 155.77969742 433.23513961 C155.77653397 438.69502564 155.75084565 444.15480885 155.7277174 449.61464024 C155.68741361 459.91637792 155.66687748 470.21805272 155.65374351 480.51985699 C155.63479231 494.46697704 155.58469574 508.41398477 155.53649998 522.36102867 C155.46155827 544.28169579 155.42770262 566.2022273 155.38720226 588.12304783 C117.43720226 588.12304783 79.48720226 588.12304783 40.38720226 588.12304783 C40.38720226 492.75304783 40.38720226 397.38304783 40.38720226 299.12304783 C38.40720226 298.79304783 36.42720226 298.46304783 34.38720226 298.12304783 C32.03574042 297.14136958 29.80579487 296.02022652 27.53563976 294.86523533 C24.86339947 293.94209777 24.01944559 294.11164562 21.38720226 295.12304783 C18.90723533 297.1527266 18.90723533 297.1527266 16.35314941 299.78516388 C15.60970063 300.52297097 15.60970063 300.52297097 14.85123268 301.27568325 C13.18209098 302.93583813 11.52391267 304.60653306 9.86542797 306.27732944 C8.66301016 307.47772406 7.45993534 308.67746086 6.25625867 309.87659317 C2.94258267 313.18159511 -0.36162866 316.4959221 -3.66441119 319.81180537 C-7.22477571 323.38304103 -10.79376006 326.94564359 -14.3616991 330.50930882 C-21.35278941 337.4947571 -28.33586152 344.48816887 -35.31633099 351.48422866 C-43.43863112 359.6240369 -51.5689547 367.75581096 -59.69968436 375.88719762 C-74.20194442 390.39114691 -88.69712177 404.90215392 -103.18823719 419.41723728 C-117.26352061 433.5157841 -131.34334691 447.60977217 -145.42847157 461.69848728 C-146.29607098 462.56630947 -147.1636704 463.43413165 -148.0575607 464.32825147 C-149.80524908 466.07638244 -151.55293774 467.82451312 -153.30062668 469.57264352 C-154.16266019 470.43489659 -155.02469369 471.29714966 -155.91284943 472.18553162 C-156.77264844 473.04554662 -157.63244746 473.90556162 -158.51830099 474.79163769 C-171.92231585 488.19935011 -185.32249842 501.61089225 -198.72215128 515.02296386 C-203.58603088 519.89128422 -208.45041273 524.75910207 -213.31514033 529.62657505 C-221.02993178 537.34579226 -228.74305655 545.06666668 -236.45275839 552.79096752 C-239.97766537 556.32249715 -243.50335309 559.85323764 -247.03118038 563.38185024 C-250.25605911 566.60751249 -253.47863242 569.83545887 -256.69931815 573.06530751 C-257.86926668 574.23777646 -259.04006873 575.40939444 -260.21177562 576.58010619 C-261.79557751 578.162822 -263.3763142 579.74853516 -264.95626831 581.33509064 C-265.83770923 582.21777805 -266.71915015 583.10046547 -267.62730139 584.00990099 C-269.65186762 585.96240218 -269.65186762 585.96240218 -270.61279774 588.12304783 C-325.06279774 588.12304783 -379.51279774 588.12304783 -435.61279774 588.12304783 C-435.61279774 586.12304783 -435.61279774 586.12304783 -433.58211231 583.96835423 C-432.59360616 583.0186 -431.60369122 582.07031105 -430.61279774 581.12304783 C-429.45306838 579.96676406 -428.29639969 578.80740565 -427.14214039 577.64566135 C-426.49893848 577.00101429 -425.85573658 576.35636723 -425.19304371 575.6921854 C-424.50358158 575.00115223 -423.81411945 574.31011906 -423.10376453 573.59814548 C-415.57070092 566.04870587 -408.0350602 558.50184389 -400.49797821 550.95641613 C-395.94385724 546.39707388 -391.39067657 541.83680068 -386.83960438 537.27441502 C-382.42698985 532.85090483 -378.0119095 528.42986945 -373.5951376 524.01051044 C-371.91783491 522.33136764 -370.24140899 520.65134854 -368.56589794 518.97041798 C-366.21628262 516.61350186 -363.86351356 514.25977643 -361.51001453 511.90673923 C-360.8266251 511.21975452 -360.14323566 510.53276981 -359.43913746 509.82496738 C-358.78747608 509.17468067 -358.1358147 508.52439396 -357.46440601 507.85440159 C-356.91044997 507.29952375 -356.35649393 506.74464592 -355.78575134 506.17295361 C-353.92774775 504.42016317 -352.03107197 502.76278825 -350.09182167 501.10207176 C-344.50793008 496.23644256 -339.32336902 490.9686837 -334.09680653 485.72731113 C-332.94342072 484.57436199 -331.78981494 483.42163286 -330.63600969 482.26910347 C-327.48220095 479.11752104 -324.33150245 475.96284549 -321.18132162 472.80763733 C-317.77765673 469.39964129 -314.37108923 465.99454876 -310.96487904 462.58909702 C-305.0691137 456.69385523 -299.17517747 450.79678987 -293.28249073 444.89847088 C-284.76272253 436.37056476 -276.24018404 427.84543161 -267.71697372 419.32096588 C-253.88764743 405.48945267 -240.06055431 391.65570923 -226.23486805 377.82055759 C-212.80700541 364.38351153 -199.3780896 350.94751943 -185.94775867 337.51294041 C-185.11947569 336.6843947 -184.29119271 335.85584899 -183.43781024 335.00219584 C-179.28242073 330.84550126 -175.12701053 326.68882736 -170.97159004 322.53216374 C-136.51545168 288.06566399 -102.06293849 253.59554227 -67.61279774 219.12304783 C-68.74749197 215.66480939 -69.87261345 212.35380265 -71.52295399 209.10742283 C-71.87293446 208.4139072 -72.22291492 207.72039158 -72.58350086 207.00586033 C-72.94379383 206.3020322 -73.3040868 205.59820408 -73.67529774 204.87304783 C-74.03945789 204.15375095 -74.40361805 203.43445408 -74.77881336 202.69336033 C-75.72020857 200.83493135 -76.66618511 198.97882468 -77.61279774 197.12304783 C-77.94279774 196.46304783 -78.27279774 195.80304783 -78.61279774 195.12304783 C-275.95279774 194.79304783 -473.29279774 194.46304783 -676.61279774 194.12304783 C-676.61279774 155.84304783 -676.61279774 117.56304783 -676.61279774 78.12304783 C-661.75917225 78.10322849 -646.90554676 78.08340916 -631.60181141 78.06298923 C-599.79478285 78.01962539 -567.98776071 77.97370358 -536.18074512 77.92172337 C-535.48665258 77.92058974 -534.79256004 77.91945612 -534.07743439 77.91828814 C-518.9887348 77.89363006 -503.90003596 77.86853688 -488.81133784 77.84299622 C-481.4106039 77.83047163 -474.00986981 77.81804307 -466.60913563 77.80566502 C-465.50451067 77.80381503 -465.50451067 77.80381503 -464.37757006 77.80192767 C-440.55790437 77.76208026 -416.73823495 77.72855975 -392.91855524 77.69836092 C-368.41706759 77.66726397 -343.915598 77.62970285 -319.41413278 77.58414171 C-315.94428086 77.5776924 -312.47442881 77.57131611 -309.00457668 77.56498432 C-308.32173762 77.56373602 -307.63889855 77.56248771 -306.93536739 77.56120158 C-295.99470758 77.54138788 -285.05404978 77.52828051 -274.11337752 77.51775455 C-263.08333093 77.50699682 -252.05331228 77.48884288 -241.02328827 77.46388079 C-235.05957586 77.45059431 -229.09590249 77.44036314 -223.13217449 77.43883419 C-177.11988315 77.42907554 -177.11988315 77.42907554 -131.61279774 71.12304783 C-130.87529285 70.97109959 -130.13778797 70.81915134 -129.37793446 70.66259861 C-114.28775017 67.45907603 -99.40431217 62.01880504 -85.61279774 55.12304783 C-83.96537586 54.29933689 -83.96537586 54.29933689 -82.28467274 53.45898533 C-65.50681454 44.86921213 -49.77056604 34.8351881 -36.05029774 21.87304783 C-31.16988276 17.27827995 -25.96011071 13.30215003 -20.48779774 9.43554783 C-19.74070545 8.90606541 -18.99361317 8.37658298 -18.22388172 7.83105564 C-12.8780678 4.12304783 -12.8780678 4.12304783 -10.61279774 4.12304783 C-10.61279774 3.13304783 -10.61279774 2.14304783 -10.61279774 1.12304783 C-7.01112725 0.29802618 -3.69177961 -0.00144492 0 0 Z " fill="white" transform="translate(677.6127977371216,206.87695217132568)"/>
    </mask>
  </defs>
  <rect width="1080" height="1080" fill="white" mask="url(#asteriskMask)"/>
</svg>
