<svg xmlns="http://www.w3.org/2000/svg" width="1024" height="1024" viewBox="0 0 1024 1024">
<g>
<path d="M 1024.00 270.00 L 1024.00 381.00 L 998.63 381.00 C969.33,381.00 962.28,381.91 944.71,387.97 C888.48,407.36 851.20,434.67 822.72,477.33 C812.57,492.53 801.49,517.81 796.12,538.00 C791.57,555.11 791.61,554.25 791.04,656.00 L 790.50 753.50 L 735.75 753.76 L 681.01 754.02 L 680.75 617.32 L 680.50 480.63 L 673.16 477.66 L 665.81 474.69 L 526.13 614.37 L 386.45 754.05 L 308.55 754.01 C265.70,753.99 230.41,753.74 230.12,753.45 C229.52,752.85 307.01,674.40 308.45,674.16 C308.97,674.07 369.97,613.20 444.00,538.89 L 578.61 403.78 L 573.06 392.47 L 567.50 381.16 L 284.50 380.83 L 1.50 380.50 L 1.24 325.28 L 0.98 270.05 L 246.74 269.68 C422.46,269.41 494.49,268.98 499.50,268.17 C543.27,261.13 572.96,246.85 611.89,214.12 C621.73,205.84 636.19,191.14 645.18,180.26 L 647.86 177.02 L 804.61 176.99 C890.82,176.98 961.75,177.35 962.22,177.82 C962.69,178.29 945.66,195.75 924.08,216.91 L 885.09 255.14 L 888.76 262.57 L 892.44 270.00 L 1024.00 270.00 Z" fill="rgb(29,29,29)"/>
<path d="M 0.00 512.00 L 0.00 0.00 L 512.00 0.00 L 1024.00 0.00 L 1024.00 135.00 L 1024.00 270.00 L 958.22 270.00 L 892.44 270.00 L 888.76 262.57 L 885.09 255.14 L 924.08 216.91 C945.66,195.75 962.69,178.29 962.22,177.82 C961.75,177.35 890.82,176.98 804.61,176.99 L 647.86 177.02 L 645.18 180.26 C636.19,191.14 621.73,205.84 611.89,214.12 C572.96,246.85 543.27,261.13 499.50,268.17 C494.49,268.98 422.46,269.41 246.74,269.68 L 0.98 270.05 L 1.24 325.28 L 1.50 380.50 L 284.50 380.83 L 567.50 381.16 L 573.06 392.47 L 578.61 403.78 L 444.00 538.89 C369.97,613.20 308.97,674.07 308.45,674.16 C307.01,674.40 229.52,752.85 230.12,753.45 C230.41,753.74 265.70,753.99 308.55,754.01 L 386.45 754.05 L 526.13 614.37 L 665.81 474.69 L 673.16 477.66 L 680.50 480.63 L 680.75 617.32 L 681.01 754.02 L 735.75 753.76 L 790.50 753.50 L 791.04 656.00 C791.61,554.25 791.57,555.11 796.12,538.00 C801.49,517.81 812.57,492.53 822.72,477.33 C851.20,434.67 888.48,407.36 944.71,387.97 C962.28,381.91 969.33,381.00 998.63,381.00 L 1024.00 381.00 L 1024.00 702.50 L 1024.00 1024.00 L 512.00 1024.00 L 0.00 1024.00 L 0.00 512.00 Z" fill="rgb(254,254,254)"/>
</g>
</svg>